# xmcd
#
# Track frame offsets:
#	150
#	18383
#	37534
#	49066
#	64493
#	77140
#	89204
#	108259
#	127117
#	143264
#	156672
#	172571
#	192734
#	199375
#	221304
#	240540
#	262799
#	280836
#
# Disc length: 3972 seconds
#
# Revision: 1
# Processed by: cddbd v1.4PL0 Copyright (c) Steve Scherf et al.
# Submitted via: audiograbber 1.81.02
#
DISCID=fb0f8212
DTITLE=Tom Waits - Big Time
DYEAR=1988
DGENRE=Blues
TTITLE0=16 Shells From a 30.6
TTITLE1=Red Shoes
TTITLE2=Underground
TTITLE3=Cold Cold Ground
TTITLE4=Straight to the Top
TTITLE5=Yesterday is Here
TTITLE6=Way Down In The Hole
TTITLE7=Falling Down
TTITLE8=Strange Weather
TTITLE9=Big Black Mariah
TTITLE10=Rain Dogs
TTITLE11=Train Song
TTITLE12=Johnsburg, Illinois
TTITLE13=Ruby's Arms
TTITLE14=Telephone Call From Istanbul
TTITLE15=Clap Hands
TTITLE16=Gun Street Girl
TTITLE17=Time
EXTD=
EXTT0=
EXTT1=
EXTT2=
EXTT3=
EXTT4=
EXTT5=
EXTT6=
EXTT7=
EXTT8=
EXTT9=
EXTT10=
EXTT11=
EXTT12=
EXTT13=
EXTT14=
EXTT15=
EXTT16=
EXTT17=
PLAYORDER=
